<svg width="90" height="73" viewBox="0 0 90 73" fill="none" xmlns="http://www.w3.org/2000/svg">
<rect width="90" height="63" rx="7" fill="url(#paint0_linear_16_35)"/>
<circle cx="30.5" cy="23.5" r="17.5" fill="white" fill-opacity="0.61"/>
<path d="M35.345 22.22V36.185C35.345 37.3283 35.59 38.2383 36.08 38.915C36.5933 39.5683 37.41 39.895 38.53 39.895C39.65 39.895 40.4783 39.5683 41.015 38.915C41.5517 38.2383 41.82 37.3283 41.82 36.185V22.22H49.555V36.185C49.555 38.5417 49.065 40.56 48.085 42.24C47.105 43.8967 45.7633 45.145 44.06 45.985C42.3567 46.825 40.455 47.245 38.355 47.245C36.255 47.245 34.3883 46.825 32.755 45.985C31.145 45.145 29.885 43.8967 28.975 42.24C28.065 40.5833 27.61 38.565 27.61 36.185V22.22H35.345Z" fill="black" fill-opacity="0.54"/>
<path d="M57.08 22.38V33H53.75V22.38H57.08Z" fill="white"/>
<path d="M57.515 45L55.565 42.24L53.945 45H50.15L53.645 39.525L50 34.38H53.945L55.82 37.035L57.38 34.38H61.175L57.74 39.75L61.46 45H57.515Z" fill="white"/>
<circle cx="45" cy="71" r="2" fill="url(#paint1_linear_16_35)"/>
<line x1="45" y1="63" x2="45" y2="70" stroke="url(#paint2_linear_16_35)" stroke-width="2"/>
<defs>
<linearGradient id="paint0_linear_16_35" x1="45" y1="0" x2="45" y2="99.5" gradientUnits="userSpaceOnUse">
<stop stop-color="#B300FF"/>
<stop offset="1" stop-color="#3B1886"/>
</linearGradient>
<linearGradient id="paint1_linear_16_35" x1="45" y1="69" x2="45" y2="73" gradientUnits="userSpaceOnUse">
<stop stop-color="#755382"/>
<stop offset="1" stop-color="#85419E"/>
</linearGradient>
<linearGradient id="paint2_linear_16_35" x1="43.5" y1="63" x2="43.5" y2="70" gradientUnits="userSpaceOnUse">
<stop stop-color="#B606F5"/>
<stop offset="1" stop-color="#804794"/>
</linearGradient>
</defs>
</svg>
